<svg width="1200" height="1200" viewBox="0 0 1200 1200" fill="none" xmlns="http://www.w3.org/2000/svg">
<mask id="mask0_409_3640" style="mask-type:alpha" maskUnits="userSpaceOnUse" x="0" y="0" width="1197" height="1197">
<circle cx="598.033" cy="598.033" r="598.033" fill="#D9D9D9"/>
</mask>
<g mask="url(#mask0_409_3640)">
<rect width="1200" height="1200" fill="#E26076"/>
<path d="M1130.2 330.588C1368.24 789.02 949.804 1306.27 450.981 1180C227.059 1124.31 47.0589 930.196 9.80403 702.353C-32.5489 475.686 69.804 232.157 261.177 103.922C523.53 -76.4704 887.059 -16.4704 1074.9 241.569C1076.08 242.745 1075.69 244.706 1074.12 245.883C1072.94 247.059 1070.98 246.667 1069.8 245.098C1043.92 211.765 1014.51 181.569 982.353 154.51C929.412 109.412 867.451 74.1179 801.961 50.1963C468.628 -70.588 102.745 130.196 29.804 478.824C-52.5489 869.412 279.608 1229.02 675.686 1175.29C981.177 1136.86 1208.24 854.902 1183.14 548.235C1177.65 474.118 1158.04 400.785 1125.49 333.334C1124.71 332.157 1125.49 330.588 1126.67 329.804C1127.84 329.02 1129.41 329.412 1130.2 330.588Z" fill="black"/>
<path d="M925.883 1091.76C923.138 1093.73 920.001 1095.69 917.256 1097.65C914.118 1099.61 911.373 1101.57 908.236 1103.14C905.491 1104.71 903.138 1106.27 900.393 1107.84C900.001 1108.24 899.609 1108.24 899.216 1108.63C890.197 1114.12 880.785 1119.22 871.373 1123.92C868.628 1125.49 865.491 1127.06 862.746 1128.24C862.746 1128.24 862.354 1128.63 861.962 1128.63C858.824 1130.2 855.687 1131.76 852.55 1133.33C846.275 1136.47 839.609 1139.22 833.334 1141.96C830.197 1143.53 826.667 1144.71 823.53 1145.88C820.393 1147.06 816.864 1148.63 813.726 1149.8C810.589 1150.98 807.06 1152.55 803.922 1153.73C803.922 1153.73 803.922 1153.73 803.53 1153.73C800.393 1154.9 796.864 1156.08 793.726 1157.25C786.667 1159.61 779.216 1161.96 772.158 1164.31C769.805 1165.1 767.06 1165.88 764.707 1166.67C757.256 1169.02 749.805 1170.98 742.354 1172.55C739.609 1173.33 736.864 1173.73 733.726 1174.51C726.667 1176.08 719.216 1177.65 712.158 1179.22C710.589 1179.61 709.413 1179.61 707.844 1180C705.491 1180.39 702.746 1180.78 700.393 1181.18C696.864 1181.57 693.726 1182.35 690.197 1182.74C688.628 1183.14 687.06 1183.14 685.491 1183.53C683.53 1183.92 681.177 1184.31 678.824 1184.31C672.55 1185.1 665.883 1185.88 659.609 1186.67C657.648 1187.06 655.295 1187.06 653.334 1187.45H652.942C650.197 1187.84 647.452 1187.84 644.707 1188.24C641.962 1188.63 639.217 1188.63 636.471 1188.63C634.903 1188.63 632.942 1189.02 631.373 1189.02C628.236 1189.02 625.491 1189.41 622.746 1189.41C618.824 1189.41 615.295 1189.8 611.373 1189.8C607.452 1189.8 603.922 1189.8 600.001 1189.8C597.256 1189.8 594.511 1189.8 591.765 1189.8C426.275 1187.45 277.648 1117.25 171.373 1005.88C171.373 1005.88 171.373 1005.49 170.981 1005.49C159.216 994.902 169.413 938.431 216.864 902.745C276.471 857.647 419.217 829.412 419.217 829.412C419.217 829.412 474.511 820.392 679.609 863.137C799.609 888.235 890.981 924.706 941.962 1023.53C952.55 1043.92 963.138 1075.29 925.883 1091.76Z" fill="white"/>
<path d="M680.785 858.823C756.079 874.118 836.471 890.588 898.432 940.392C919.216 957.255 932.942 981.961 944.315 1005.88C949.805 1017.65 955.295 1029.8 959.609 1042.75C961.962 1051.37 965.491 1061.18 963.53 1071.37C963.138 1074.12 960.785 1077.65 958.824 1079.61C949.805 1088.63 940.001 1094.12 930.197 1101.18C872.55 1141.18 806.275 1169.41 737.648 1184.31C584.707 1217.65 419.216 1191.76 284.707 1111.37C240.001 1084.31 198.824 1051.37 163.53 1012.55C159.609 1007.84 159.609 1000 159.609 994.902C160.001 983.137 163.138 971.765 167.06 961.176C176.471 936.863 188.628 912.549 209.413 895.686C224.315 885.49 240.393 876.863 256.864 869.804C308.628 847.843 363.138 832.549 419.216 826.274C423.922 825.882 424.707 832.549 420.001 833.333C366.275 844.314 312.942 860.784 263.138 883.137C245.099 892.157 225.883 900 211.373 914.118C197.648 929.02 187.844 947.451 180.001 966.274C174.903 977.647 171.373 995.686 172.942 1004.71C197.648 1034.12 226.667 1060 258.04 1082.35C429.805 1202.35 690.589 1210.2 873.334 1110.2C889.805 1101.18 905.883 1090.98 921.177 1080.39C928.628 1075.29 936.471 1070.98 942.354 1065.1C942.746 1064.71 942.354 1065.1 942.354 1065.49C942.354 1065.88 941.962 1066.27 941.962 1066.27C942.354 1061.57 940.785 1055.29 938.824 1049.02C931.765 1026.27 920.393 1002.35 908.236 981.569C889.02 950.588 856.471 930.98 823.53 915.294C800.785 904.706 776.863 896.471 752.55 888.627C728.236 880.784 703.53 874.118 678.824 868.235C672.55 866.667 674.511 857.647 680.785 858.823Z" fill="black"/>
<path d="M349.41 825.881C349.41 825.881 406.665 803.136 417.254 802.352L418.038 811.372C418.038 811.372 372.548 830.979 369.803 834.117C367.45 836.862 349.41 825.881 349.41 825.881Z" fill="#7E5D6D"/>
<path d="M1056.08 1334.9H64.3118C64.3118 1334.9 90.1941 1150.98 150.194 1021.57C195.292 923.529 283.135 860.784 362.351 832.549C384.704 824.706 401.959 816.078 418.037 811.764C418.037 812.549 490.194 800 548.625 806.666C639.998 816.862 733.331 847.843 734.508 847.451C785.096 860.784 847.057 898.431 936.861 973.725C1038.04 1058.43 1056.08 1334.9 1056.08 1334.9Z" fill="white"/>
<mask id="mask1_409_3640" style="mask-type:alpha" maskUnits="userSpaceOnUse" x="64" y="804" width="993" height="531">
<path d="M1056.08 1334.9H64.3115C64.3115 1334.9 90.1939 1150.98 150.194 1021.57C195.292 923.529 283.135 860.784 362.351 832.549C384.704 824.706 401.959 816.078 418.037 811.764C418.037 812.549 490.194 800 548.625 806.666C639.998 816.862 733.331 847.843 734.508 847.451C785.096 860.784 847.057 898.431 936.86 973.725C1038.04 1058.43 1056.08 1334.9 1056.08 1334.9Z" fill="white"/>
</mask>
<g mask="url(#mask1_409_3640)">
<path d="M268.234 802.744C289.803 803.528 300.783 803.921 322.352 803.528C341.567 814.901 350.979 820.391 370.587 830.979C390.587 829.803 400.783 829.019 420.783 826.666C440.783 836.078 450.587 840.783 470.587 849.803C490.979 846.666 501.175 844.705 521.175 840.783C541.567 848.627 552.155 852.156 572.548 858.823C592.94 853.725 603.136 850.587 623.528 844.705C644.704 850.195 655.293 852.94 676.469 857.646C696.861 850.195 707.057 846.666 727.45 838.43C749.018 841.96 759.999 843.529 781.567 846.274C801.567 836.862 811.763 832.156 831.763 821.96C853.724 823.136 864.705 823.529 886.665 823.921C906.273 812.156 916.077 806.274 935.685 794.117C960.391 792.156 972.548 790.979 997.253 788.234C995.293 797.646 994.508 802.352 992.94 811.764C972.548 814.117 961.959 815.293 941.567 816.862C921.567 829.411 911.763 835.685 891.371 847.45C869.018 847.45 858.038 847.058 835.685 845.881C815.293 856.077 805.097 861.176 784.705 870.587C762.744 867.842 751.763 866.274 729.803 863.136C709.41 871.372 698.822 875.293 678.43 882.352C656.861 877.646 646.273 874.901 625.097 869.411C604.704 875.293 594.116 878.43 573.724 883.529C552.94 876.47 542.352 872.94 521.567 865.097C501.175 869.019 490.979 870.979 470.195 874.117C449.803 865.097 439.999 860.783 419.606 850.979C399.214 852.94 389.018 853.725 369.018 854.901C349.41 844.313 339.606 838.823 320.391 827.058C302.352 827.058 293.332 827.058 275.293 826.274C272.548 817.254 270.979 812.548 268.234 802.744Z" fill="black"/>
<path d="M262.745 902.353C284.314 902.745 294.902 902.745 316.863 901.961C336.471 912.941 346.275 918.039 365.882 928.235C385.882 926.667 395.686 925.49 415.686 922.745C435.686 931.765 445.882 936.079 466.275 944.314C486.275 940.784 496.078 938.431 516.471 934.118C537.255 941.177 547.843 944.706 568.627 950.981C588.627 945.098 598.824 942.353 618.824 935.686C640 940.784 650.98 943.137 672.157 947.451C692.157 939.608 701.961 935.686 721.961 927.059C743.922 930.196 754.51 931.373 776.471 933.333C796.078 923.53 805.882 918.432 825.49 907.843C847.451 908.628 858.824 908.628 880.784 908.235C900 896.471 909.412 890.196 928.627 877.647C953.333 875.294 965.882 874.118 990.588 870.588C989.02 880 988.627 884.706 987.059 893.726C966.274 896.471 956.078 897.647 935.686 899.608C916.078 912.549 906.667 918.824 887.059 930.98C864.706 931.373 853.333 931.373 830.98 930.588C810.98 941.177 801.176 946.275 781.176 956.471C759.216 954.51 747.843 953.333 725.882 950.196C705.882 958.824 695.686 962.745 675.294 970.588C653.725 966.275 642.745 963.922 621.176 958.824C600.784 965.49 590.98 968.235 570.588 974.118C549.412 967.843 538.824 964.314 518.039 957.255C497.647 961.569 487.843 963.922 467.451 967.451C447.059 959.216 436.471 954.902 416.078 945.49C396.078 947.843 385.882 949.02 365.882 950.981C345.882 940.784 336.078 935.294 316.471 924.314C298.431 924.706 289.412 925.098 271.765 924.706C267.843 916.079 266.275 911.373 262.745 902.353Z" fill="black"/>
<path d="M257.253 1000.39C278.43 999.999 289.41 999.607 310.979 998.823C330.587 1009.41 340.783 1014.51 360.783 1023.92C380.391 1021.57 390.195 1020.39 409.802 1017.25C430.195 1025.88 440.391 1029.8 461.175 1037.65C480.783 1033.33 490.587 1031.37 510.587 1026.27C531.763 1032.94 542.351 1036.08 563.528 1041.96C583.136 1035.69 592.94 1032.55 612.548 1025.88C634.116 1030.59 645.097 1032.55 666.665 1036.47C686.273 1028.23 696.077 1024.31 715.293 1015.29C737.253 1017.65 748.234 1018.82 770.195 1020.39C789.41 1010.2 799.214 1005.1 818.038 994.117C840.391 994.117 851.371 994.117 873.724 993.332C892.548 981.176 901.959 974.901 920.391 962.352C945.097 959.607 957.646 958.038 982.351 954.117C981.175 963.136 980.783 967.842 979.998 977.254C959.214 980.391 949.018 981.96 928.234 984.313C909.41 997.254 899.606 1003.92 880.783 1016.08C858.038 1016.86 846.665 1017.25 824.312 1016.86C804.704 1027.84 795.293 1032.94 775.685 1043.53C753.332 1041.96 742.351 1041.18 719.999 1038.43C700.391 1047.45 690.587 1051.76 670.587 1060C648.626 1056.47 637.646 1054.12 616.077 1049.41C596.077 1056.47 586.273 1059.61 566.273 1065.88C544.704 1060 534.116 1056.86 512.94 1050.2C492.94 1055.29 483.136 1057.65 463.136 1061.57C442.351 1053.72 431.763 1049.41 411.371 1040.78C391.371 1043.92 381.567 1045.1 361.567 1047.45C341.175 1037.65 331.371 1032.55 311.371 1021.96C293.724 1022.74 284.704 1023.14 267.057 1023.53C262.744 1014.51 261.175 1009.8 257.253 1000.39Z" fill="black"/>
<path d="M251.371 1098.04C272.548 1097.25 283.136 1096.47 304.312 1094.9C324.312 1105.1 334.508 1109.8 354.901 1118.82C374.116 1116.08 383.92 1114.51 403.528 1110.98C424.312 1119.21 434.9 1123.14 455.685 1130.2C474.901 1125.49 484.704 1123.14 504.312 1117.65C525.489 1123.92 536.469 1126.67 557.646 1131.76C576.861 1125.1 586.665 1121.57 605.881 1114.51C627.842 1118.43 638.43 1120.39 660.391 1123.53C679.606 1114.9 689.018 1110.59 708.234 1101.57C730.587 1103.53 741.567 1104.31 763.92 1105.49C782.744 1095.29 792.155 1089.8 810.979 1078.82C833.332 1078.43 844.704 1078.04 867.057 1076.86C885.489 1064.71 894.508 1058.43 912.548 1045.49C937.646 1042.35 950.195 1040.39 974.901 1036.08C974.116 1045.1 974.116 1049.8 973.332 1058.82C952.548 1062.35 942.351 1063.92 921.567 1066.67C903.136 1080 893.724 1086.27 875.293 1098.82C852.548 1100 841.175 1100.39 818.43 1100.78C799.606 1112.16 789.802 1117.65 770.979 1127.84C748.626 1126.67 737.253 1126.27 714.901 1124.31C695.685 1133.72 685.881 1138.04 666.665 1146.67C644.312 1143.53 633.332 1141.57 611.371 1137.65C591.763 1145.1 581.959 1148.63 562.351 1155.29C540.783 1150.2 529.802 1147.06 508.234 1141.18C488.626 1146.67 478.822 1149.02 459.214 1153.72C438.038 1146.27 427.45 1142.74 406.273 1134.51C386.665 1138.04 376.861 1139.61 357.253 1142.35C336.469 1132.94 326.273 1128.23 306.273 1118.04C288.626 1119.61 279.999 1120 262.351 1120.78C258.038 1111.76 255.685 1107.06 251.371 1098.04Z" fill="black"/>
<path d="M245.879 1194.51C266.664 1192.94 277.252 1192.16 298.428 1189.8C318.821 1199.21 329.017 1203.92 349.801 1212.55C369.017 1209.41 378.428 1207.45 397.644 1203.53C418.821 1210.98 429.409 1214.9 450.585 1221.57C469.801 1216.47 479.213 1213.72 498.036 1207.84C519.605 1213.33 530.585 1216.08 552.154 1220.78C570.977 1213.72 580.389 1210.19 599.605 1202.35C621.566 1205.88 632.546 1207.45 654.899 1210.19C673.723 1201.18 682.742 1196.86 701.566 1187.45C723.919 1189.02 735.291 1189.41 757.644 1190.19C776.075 1179.61 785.095 1174.12 803.526 1162.74C826.272 1161.96 837.252 1161.57 859.997 1160C877.644 1147.45 886.664 1141.18 904.311 1128.23C929.409 1124.7 941.958 1122.74 967.056 1118.04C966.664 1127.06 966.664 1131.37 966.272 1140.39C945.487 1144.31 935.291 1145.88 914.507 1149.02C896.468 1162.35 887.448 1169.02 869.409 1181.57C846.664 1183.53 834.899 1183.92 812.154 1184.7C793.723 1196.08 784.311 1201.96 765.879 1212.55C743.134 1212.16 731.762 1211.76 709.017 1210.19C690.193 1220 680.781 1224.31 661.958 1233.33C639.605 1230.59 628.232 1229.02 605.879 1225.49C586.664 1233.33 577.252 1236.86 558.036 1243.92C536.075 1239.21 525.095 1236.47 503.134 1230.98C483.919 1236.86 474.115 1239.61 454.899 1244.7C433.33 1238.04 422.742 1234.51 401.174 1226.67C381.958 1230.59 372.154 1232.55 352.938 1235.69C332.154 1227.06 321.566 1222.35 300.781 1212.94C283.526 1214.9 274.899 1215.69 257.644 1216.86C252.938 1208.23 250.585 1203.53 245.879 1194.51Z" fill="black"/>
</g>
<path d="M1063.53 1341.57C769.018 1342.35 354.9 1345.49 64.7039 1344.71C58.8216 1344.71 53.7235 1339.22 54.9 1333.33C69.0177 1249.02 88.6255 1166.27 116.861 1085.49C146.273 999.216 187.449 932.549 263.135 879.216C298.037 854.118 337.253 836.471 377.253 822.353C390.194 817.255 403.527 811.765 417.645 807.843L421.567 810.588V810.196C421.567 808.235 417.645 807.059 418.822 807.451V807.059C419.214 806.274 419.998 805.882 420.39 805.098C424.704 800.392 430.978 798.823 437.253 798.431C443.92 797.647 450.586 796.863 457.645 796.078C484.704 792.941 512.155 792.157 539.606 794.902C567.057 798.039 593.331 803.137 619.998 809.02C658.429 817.647 696.469 830.196 734.116 841.569L735.292 841.961H735.684C735.684 841.961 736.076 841.961 735.684 841.961C735.684 841.961 735.292 841.961 734.9 841.961C734.508 841.961 734.116 841.961 733.723 842.353H736.469C788.233 856.078 832.939 885.882 876.076 916.863C897.253 932.549 918.037 948.627 938.429 965.49C959.606 981.961 976.076 1004.71 989.018 1028.24C1014.51 1074.9 1030.19 1126.27 1042.35 1177.65C1053.33 1225.88 1061.17 1274.9 1066.27 1323.92L1066.66 1329.02L1067.06 1331.37V1332.55C1066.27 1336.08 1065.1 1339.61 1063.53 1341.57ZM1048.63 1327.84C1047.06 1329.41 1045.49 1332.55 1045.88 1334.51V1334.12V1332.94V1330.59C1039.21 1254.9 1026.66 1179.22 1003.14 1107.06C987.057 1060 966.272 1010.2 927.057 978.431C887.449 945.49 846.272 912.941 801.567 887.059C779.214 874.51 756.076 863.137 732.155 856.863L738.037 856.47C737.253 857.255 733.723 857.255 733.331 856.863C710.194 852.157 678.429 840 655.684 832.549C623.92 821.961 590.978 816.471 557.645 813.725C524.704 810.588 491.763 813.333 459.214 816.863C452.547 817.647 445.88 818.039 439.606 818.823C432.547 820.392 425.096 820 418.822 814.902C418.822 814.902 418.822 814.902 418.429 814.902H418.037C418.822 815.294 414.9 814.118 415.292 812.157V811.765L419.214 814.51C405.88 818.039 393.331 824.314 379.998 829.412C367.057 834.902 353.724 839.216 340.782 845.098C290.194 867.843 243.92 901.569 207.449 943.921C170.194 985.882 148.233 1037.65 130.586 1090.59C104.312 1170.2 86.2726 1253.33 74.5078 1336.08L64.7039 1324.71C349.018 1325.1 759.998 1326.27 1048.63 1327.84Z" fill="black"/>
<path d="M258.429 1334.9L240.782 1189.41" stroke="#544D4D" stroke-width="3" stroke-miterlimit="10" stroke-linecap="round" stroke-linejoin="round"/>
<path d="M943.529 1140C943.529 1140 931.764 1168.63 935.293 1197.25C938.823 1225.88 949.019 1267.84 934.509 1334.9" stroke="#544D4D" stroke-width="3" stroke-miterlimit="10" stroke-linecap="round" stroke-linejoin="round"/>
<path d="M349.411 825.882C356.862 823.529 369.803 825.882 373.725 832.549C389.019 857.647 425.882 930.98 441.176 1076.47C453.333 1190.2 434.901 1394.9 434.901 1394.9L54.1169 1376.86C54.1169 1376.86 93.7248 1235.69 127.058 1106.27C145.097 1036.47 150.98 935.686 200.784 898.431C240.784 868.627 290.588 846.274 349.411 825.882Z" fill="black"/>
<path d="M743.922 849.804C743.922 849.804 865.099 1077.65 829.805 1381.96H1091.37C1091.37 1381.96 1081.96 1348.63 1049.02 1208.63C1020 1086.27 990.589 981.176 960.001 952.549C880.001 877.255 766.667 840 766.667 840C766.667 840 753.726 846.275 743.922 849.804Z" fill="black"/>
<path d="M743.921 849.804L734.509 847.059C734.509 847.059 748.235 840.392 754.117 836.471L757.646 834.51C757.646 834.51 776.47 843.137 783.136 846.274C789.803 849.412 759.999 863.922 759.999 863.922C759.999 863.922 745.097 850.196 743.921 849.804Z" fill="#7E5D6D"/>
<path d="M436.862 1040C436.862 1040 423.529 1001.96 393.333 968.236C365.49 936.863 314.509 888.236 310.98 877.255C308.627 869.804 311.764 856.079 318.823 840C333.725 805.883 367.058 761.177 410.98 741.177C517.646 703.53 534.117 770.588 535.686 791.765C536.078 797.647 418.823 823.137 419.215 829.02V829.412C419.215 829.412 401.176 835.294 414.117 925.098C417.254 947.059 430.98 985.49 436.862 1040Z" fill="white"/>
<path d="M438.039 1045.88C435.293 1046.27 431.764 1044.31 430.98 1041.57L430.588 1040.78L430.195 1039.61C421.96 1018.82 410.588 999.216 396.862 981.569C369.019 947.059 334.509 919.216 307.842 883.529C307.058 882.353 306.274 881.176 305.882 879.608C302.352 867.451 307.45 854.51 311.372 843.529C330.588 798.039 363.921 757.255 409.019 736.078C420.392 732.157 432.548 728.627 444.705 726.667C469.019 722.353 497.254 723.529 517.254 740.392C532.548 753.333 540.392 772.157 542.352 791.765C542.744 795.686 538.823 798.431 536.078 800C501.176 813.333 460.392 819.608 425.49 832.549C425.097 832.941 424.313 832.941 424.313 833.333C424.313 833.333 424.313 833.333 425.097 832.549C425.49 831.765 426.274 830.588 426.274 829.412C426.274 828.627 426.274 829.804 426.274 829.804L422.352 835.294C422.744 835.294 423.137 834.902 423.137 834.902C423.137 834.902 422.744 835.294 422.744 835.686C419.215 841.176 418.431 848.235 417.646 854.902C416.47 867.843 416.862 881.176 418.039 894.118L419.215 907.451C421.568 934.51 429.803 959.216 435.293 985.882C438.039 999.216 440.392 1012.55 442.352 1025.88C442.744 1028.63 443.137 1032.16 443.137 1035.29C441.568 1038.82 439.607 1042.35 438.039 1045.88ZM435.686 1034.12C434.509 1032.55 432.156 1031.37 430.588 1031.37C430.195 1031.37 429.803 1030.98 429.803 1030.59L429.411 1027.45C425.097 991.765 413.333 958.039 407.45 921.961C406.666 915.294 405.097 901.569 404.313 894.902C403.137 874.118 400.784 851.765 409.411 831.765C411.372 828.235 412.548 825.49 417.254 823.529L412.941 829.412C412.941 829.02 412.941 828.627 412.941 828.627C412.941 826.274 415.293 823.529 416.862 822.353C427.45 816.863 438.823 814.51 450.195 810.98C475.293 803.529 507.45 796.863 531.372 787.451C531.372 787.451 531.372 787.451 530.588 788.235L530.195 788.627C529.803 789.02 529.411 789.804 529.411 790.588C529.411 790.98 529.411 791.765 529.411 791.765C528.235 775.686 521.176 758.823 508.627 748.627C491.372 734.118 467.45 733.725 445.882 737.255C435.293 738.823 421.568 743.137 412.941 745.882C384.705 758.431 360.784 780 341.96 804.706C328.235 823.529 315.293 844.706 312.156 867.843C310.588 876.078 316.47 881.569 321.176 887.451C339.215 908.235 368.235 936.471 387.45 956.471C409.803 979.216 428.627 1006.27 441.176 1035.29L441.568 1036.08C441.568 1034.9 438.039 1033.33 435.686 1034.12Z" fill="black"/>
<path d="M812.547 1052.16C812.547 1052.16 786.273 950.195 773.331 917.646C760.39 885.49 736.076 849.019 734.9 847.058C697.645 786.666 698.822 760.392 710.978 749.803C723.135 739.215 752.547 741.176 806.665 788.627C816.469 799.607 874.9 865.49 881.175 901.568C884.704 921.568 873.724 935.686 858.822 956.47C843.527 977.646 824.704 1005.49 812.547 1052.16Z" fill="white"/>
<path d="M812.548 1052.16C799.215 1009.02 787.058 964.706 770.98 922.353C760.784 897.647 746.274 874.51 731.372 852.157C716.862 828.235 701.568 803.529 697.646 775.294C694.117 748.627 713.333 733.333 738.823 740C766.666 747.451 789.019 766.274 810.195 784.314C827.45 803.529 843.921 823.137 858.823 844.706C876.862 872.549 899.999 905.098 877.646 937.255C867.45 953.333 854.509 967.843 844.313 983.921C830.588 1005.1 819.999 1027.84 812.548 1052.16ZM812.548 1046.27C811.764 1044.31 810.587 1043.92 809.803 1042.75C810.98 1039.22 812.156 1035.69 813.333 1032.55C862.744 905.49 939.607 941.961 801.96 792.941C784.705 778.431 760.391 758.431 736.078 752.157C718.431 747.843 707.45 755.686 709.803 774.118C716.862 818.823 750.195 853.725 769.019 893.725C785.882 926.667 794.117 962.745 804.313 998.039C806.666 1006.67 812.94 1029.41 814.901 1037.65C815.686 1040.39 817.254 1046.27 818.038 1049.41V1049.8C817.254 1047.45 814.117 1045.88 812.548 1046.27Z" fill="black"/>
<path d="M717.648 963.137C709.413 1003.53 656.079 1027.84 566.275 991.372C472.942 953.725 432.55 863.921 422.354 837.255C477.648 733.725 439.217 661.961 439.217 661.961C566.667 650.98 678.04 800 678.04 800L695.295 873.725C696.864 880 700.001 885.49 704.707 889.412C712.942 903.921 722.746 937.255 717.648 963.137Z" fill="white"/>
<path d="M420.395 838.431C427.846 827.059 432.552 813.726 435.689 800.784C441.571 773.726 443.532 746.275 443.924 718.824V708.627C442.748 698.431 439.218 687.843 435.297 678.431C430.199 665.882 448.63 658.039 454.512 670.588C455.297 672.157 455.297 674.902 455.297 676.471C456.473 729.804 458.826 798.431 425.101 842.745C422.748 845.098 418.042 841.569 420.395 838.431Z" fill="black"/>
<path d="M682.354 799.216C688.237 802.745 690.197 807.451 690.982 812.157C693.335 821.569 692.55 831.765 694.903 841.569C696.864 850.981 702.746 860 704.315 869.804C706.276 880 712.158 901.569 714.511 912.157C715.295 914.51 713.727 917.255 710.982 917.647C709.413 918.04 708.237 917.647 707.06 916.863C701.962 912.549 699.609 908.236 696.472 902.745C691.374 893.334 687.845 884.706 684.707 874.118C681.962 864.706 683.139 854.51 680.786 844.706C678.825 835.294 673.335 826.275 671.374 816.471C670.197 811.765 669.805 806.667 673.335 800.785C675.688 798.432 679.609 797.647 682.354 799.216Z" fill="black"/>
<path d="M710.591 902.745C635.689 898.823 574.512 875.294 514.905 769.02C565.101 813.333 624.316 830.196 686.669 838.039L694.905 874.117C696.473 880.392 705.885 898.823 710.591 902.745Z" fill="black"/>
<path d="M707.455 888.235C720.788 913.333 728.632 944.706 720.396 972.549C714.122 992.157 696.083 1006.67 676.475 1012.16C630.985 1024.31 578.436 1005.1 538.043 983.529C488.239 955.686 451.377 909.019 427.847 858.039C426.279 854.117 431.769 850.98 434.122 854.902C442.357 871.372 451.769 887.451 462.357 901.961C472.945 916.863 485.102 930.588 498.828 942.745C538.828 978.823 592.945 1001.18 647.063 1001.18C702.749 999.608 723.926 970.196 710.985 916.078C709.024 907.451 705.886 898.431 701.573 890.98C699.22 887.843 705.102 884.314 707.455 888.235Z" fill="black"/>
<path d="M859.217 417.255C866.276 450.196 860.786 472.157 857.648 563.137C821.569 713.725 824.315 797.255 804.315 817.255C788.629 832.941 694.903 853.334 625.491 835.686C590.197 826.667 560.393 806.275 536.08 791.765C505.491 773.333 482.354 713.333 460.393 676.863C443.139 648.235 441.178 685.883 418.825 661.177C387.844 627.451 350.59 559.608 369.021 439.608C398.825 245.098 552.942 222.353 667.06 243.922C781.57 265.49 840.393 330.588 859.217 417.255Z" fill="white"/>
<path d="M438.04 695.687C424.315 672.941 404.707 654.118 392.158 630.589C354.119 559.216 346.276 472.549 368.237 394.902C414.119 229.412 580.393 205.098 724.707 253.726C805.491 281.177 862.354 349.412 870.59 435.294C871.374 462.745 864.315 488.236 863.923 515.294C861.962 586.667 839.609 655.294 830.982 723.922C829.021 745.491 829.021 768.236 825.884 790.196C825.099 794.902 824.315 799.216 822.746 804.314C819.217 814.902 811.374 822.353 802.746 828.236C770.197 848.236 733.335 851.765 696.472 853.726C619.609 856.863 552.158 834.51 506.276 770.589C504.707 768.236 507.844 765.49 509.805 767.843C561.178 822.745 622.746 840.392 695.688 836.863C726.668 835.294 792.942 829.412 806.668 799.216C813.335 774.51 813.335 748.628 817.256 722.745C821.57 692.157 833.335 649.412 840.393 619.216C848.237 585.098 854.903 550.589 855.295 515.687C855.688 498.04 855.688 480.392 855.688 462.745C856.472 445.098 852.942 429.804 848.629 412.941C832.942 345.883 784.707 290.196 719.609 265.49C655.688 240.785 581.57 234.51 516.08 256.079C449.413 277.255 403.923 334.51 386.668 401.177C377.648 434.118 372.942 468.628 370.589 502.745C368.629 537.255 372.158 572.549 385.884 604.706C395.688 629.02 411.766 650.196 430.59 667.843L449.021 687.059C457.648 694.902 444.315 705.098 438.04 695.687Z" fill="black"/>
<path d="M484.315 570.981C484.315 570.981 472.158 512.157 414.903 519.216C365.492 525.49 348.237 643.922 460.393 676.863" fill="white"/>
<path d="M455.297 625.491C446.277 620.393 440.002 611.765 439.61 601.177C440.002 593.334 441.179 584.314 439.218 576.471C438.042 569.02 430.198 567.059 424.316 567.451C418.042 568.628 414.12 576.471 412.944 582.746C412.944 583.138 412.551 584.314 412.551 584.706C412.159 586.667 409.022 586.667 408.238 584.706C403.14 569.412 414.512 552.549 430.983 554.51C454.12 556.079 457.257 580.393 452.944 598.824C450.591 606.667 453.728 613.726 458.042 620.393L458.826 621.569C460.787 623.922 457.649 627.059 455.297 625.491Z" fill="black"/>
<path d="M769.021 529.412C774.903 557.255 785.884 583.137 799.609 607.451C811.766 637.255 780.393 665.49 752.55 664.314C749.413 664.314 749.021 660 751.766 659.216C769.413 653.726 785.491 641.961 788.237 623.922C789.413 618.432 787.844 613.726 785.099 609.02C772.158 584.706 764.315 556.863 766.276 529.412C766.276 527.451 769.021 527.451 769.021 529.412Z" fill="black"/>
<path d="M482.353 571.373C473.334 548.235 453.726 526.275 427.451 526.667C425.098 526.275 421.177 527.059 418.824 527.059C412.157 527.451 406.667 529.804 401.569 534.51C376.471 559.608 380.785 603.922 401.177 631.765C408.236 641.569 417.255 650.196 427.451 657.255C437.647 664.314 449.02 669.804 461.177 674.51C463.922 675.294 462.745 679.608 460 679.216C433.726 673.726 408.628 660.784 391.373 639.216C364.706 607.059 359.216 553.333 390.981 521.961C398.039 515.686 407.843 510.98 417.647 510.98C420.785 510.98 425.49 510.196 428.628 510.98C445.098 511.765 460.785 520 470.981 532.941C480 543.922 485.098 557.255 486.667 570.588C486.667 572.941 483.138 573.726 482.353 571.373Z" fill="black"/>
<path d="M730.194 701.96C730.587 708.235 725.881 719.215 717.253 727.058C672.939 700 652.939 714.117 652.939 714.117C637.253 690.196 640.783 657.647 678.822 682.353C705.096 699.607 721.567 702.353 730.194 701.96Z" fill="black"/>
<path d="M716.861 727.451C707.449 735.686 693.331 740.784 674.116 732.941C665.096 729.411 658.037 722.352 652.547 714.509C652.939 714.509 672.547 700.392 716.861 727.451Z" fill="white"/>
<path d="M737.645 700.784C737.645 700.784 721.175 709.804 678.822 682.745C628.234 650.196 638.43 718.431 674.116 732.941C711.371 748.235 730.586 714.902 730.194 702.353" stroke="black" stroke-width="3" stroke-miterlimit="10" stroke-linecap="round" stroke-linejoin="round"/>
<path d="M652.941 714.509C652.941 714.509 672.941 700.392 717.255 727.451" stroke="black" stroke-width="3" stroke-miterlimit="10" stroke-linecap="round" stroke-linejoin="round"/>
<path d="M622.746 569.412C613.334 569.02 606.275 561.177 607.06 551.765L607.452 540.785C607.844 531.373 615.687 524.314 625.099 525.099C634.511 525.491 641.57 533.334 640.785 542.746L640.393 553.726C640.001 562.746 632.158 569.804 622.746 569.412Z" fill="black"/>
<path d="M787.843 575.295C779.215 574.903 772.549 567.452 772.941 558.824L773.333 548.628C773.725 540.001 781.176 533.334 789.803 533.726C798.431 534.119 805.098 541.57 804.705 550.197L804.313 560.393C803.921 569.02 796.47 575.687 787.843 575.295Z" fill="black"/>
<path d="M658.04 548.236C645.099 539.608 630.981 533.726 615.295 536.863C610.197 537.647 605.099 539.216 601.962 542.746C600.785 544.314 598.04 543.922 598.04 541.569C598.432 533.726 605.099 528.628 611.373 525.491C623.53 519.216 640.393 520.393 651.373 528.628C655.295 530.981 668.628 545.491 661.569 548.628C660.001 549.412 659.217 549.02 658.04 548.236Z" fill="black"/>
<path d="M770.197 550.197C770.197 533.726 790.589 527.844 803.138 533.726C810.197 536.863 815.295 543.138 817.256 550.589C818.04 552.942 814.511 554.903 812.942 552.942C806.275 545.099 794.903 541.177 785.883 545.883C783.138 547.452 782.746 548.628 781.962 550.197C781.962 558.04 770.589 557.648 770.197 550.197Z" fill="black"/>
<path d="M676.864 483.53C685.099 486.275 693.334 478.824 691.766 469.804C690.981 465.098 689.02 460.392 685.099 456.863C673.334 446.275 624.707 436.863 595.295 450.589C569.413 463.138 639.217 470.981 676.864 483.53Z" fill="black"/>
<path d="M794.12 489.804C787.453 492.157 780.394 485.098 781.571 476.863C781.963 472.549 783.532 468.236 786.669 465.098C796.081 455.687 828.237 448.236 848.63 462.745C866.277 474.902 824.708 478.432 794.12 489.804Z" fill="black"/>
<path d="M890.98 357.254C917.647 334.117 956.863 299.215 916.47 250.588C876.078 201.96 801.568 220.784 801.568 220.784C801.568 220.784 817.255 176.078 773.725 160C721.176 140.784 572.157 198.823 572.157 198.823C561.176 198.431 550.588 198.039 540.784 198.039C412.157 195.294 374.902 276.47 373.333 349.411C373.333 349.411 329.804 363.921 318.823 433.333C315.294 455.686 311.765 484.313 320.392 518.823C343.529 612.941 405.882 678.431 445.49 711.764C460.392 700.784 434.118 685.49 436.078 667.451C350.98 625.882 369.412 525.098 414.902 519.215C449.804 514.902 468.235 535.294 476.863 551.764C480.392 556.47 433.333 294.117 704.706 380C758.431 396.862 813.725 411.764 851.372 384.705C855.686 392.941 858.431 402.745 859.216 417.254C859.216 417.254 924.706 391.764 914.902 365.098C911.765 356.078 890.98 357.254 890.98 357.254Z" fill="black"/>
<path d="M791.766 620C791.766 620 796.472 646.667 827.452 660C835.296 663.138 843.531 658.04 843.531 649.412C843.139 649.412 793.727 623.138 791.766 620Z" fill="black"/>
<path d="M549.413 620.001C549.413 620.001 563.923 652.942 607.452 660.785C650.982 669.02 690.59 637.648 709.021 585.099C709.021 585.099 694.119 633.726 634.511 642.746C575.688 652.55 549.413 620.001 549.413 620.001Z" fill="black"/>
<path d="M717.65 546.667C716.474 602.746 671.376 647.844 616.866 647.844C562.356 647.844 518.827 602.746 518.827 546.667C519.219 490.197 564.317 443.922 619.611 443.922C674.905 443.922 719.219 490.197 717.65 546.667Z" stroke="black" stroke-width="3" stroke-miterlimit="10" stroke-linecap="round" stroke-linejoin="round"/>
<path d="M771.374 533.726C777.649 483.138 810.59 443.53 849.413 443.53C891.374 443.53 923.531 489.804 921.178 546.275C918.825 602.353 883.531 647.451 842.354 647.451C827.06 647.451 813.335 641.569 801.962 630.981" stroke="black" stroke-width="3" stroke-miterlimit="10" stroke-linecap="round" stroke-linejoin="round"/>
<path d="M520.001 535.687H464.315" stroke="black" stroke-width="3" stroke-miterlimit="10" stroke-linecap="round" stroke-linejoin="round"/>
<path d="M718.041 535.687C718.041 535.687 764.707 517.648 770.59 535.687" stroke="black" stroke-width="3" stroke-miterlimit="10" stroke-linecap="round" stroke-linejoin="round"/>
<path d="M1130.2 330.588C1368.24 789.02 949.804 1306.27 450.981 1180C227.059 1124.31 47.0589 930.196 9.80403 702.353C-32.5489 475.686 69.804 232.157 261.177 103.922C523.53 -76.4704 887.059 -16.4704 1074.9 241.569C1076.08 242.745 1075.69 244.706 1074.12 245.883C1072.94 247.059 1070.98 246.667 1069.8 245.098C1043.92 211.765 1014.51 181.569 982.353 154.51C929.412 109.412 867.451 74.1179 801.961 50.1963C468.628 -70.588 102.745 130.196 29.804 478.824C-52.5489 869.412 279.608 1229.02 675.686 1175.29C981.177 1136.86 1208.24 854.902 1183.14 548.235C1177.65 474.118 1158.04 400.785 1125.49 333.334C1124.71 332.157 1125.49 330.588 1126.67 329.804C1127.84 329.02 1129.41 329.412 1130.2 330.588Z" fill="black"/>
</g>
</svg>
