<svg width="1286" height="1220" viewBox="0 0 1286 1220" fill="none" xmlns="http://www.w3.org/2000/svg">
<g clip-path="url(#clip0_2_4)">
<path d="M56.0005 560C63.1802 560 69.0005 554.18 69.0005 547C69.0005 539.82 63.1802 534 56.0005 534C48.8208 534 43.0005 539.82 43.0005 547C43.0005 554.18 48.8208 560 56.0005 560Z" stroke="black" stroke-width="5"/>
<path d="M81.4745 548.324C107.696 545.625 148.84 548.817 153.703 569.1C158.566 589.383 139.996 596.801 130.104 597.975C92.4401 603.961 42.5 601.144 42.5 569.1" stroke="black" stroke-width="5" stroke-linecap="round"/>
<path d="M72.0005 579C73.6573 579 75.0005 577.657 75.0005 576C75.0005 574.343 73.6573 573 72.0005 573C70.3436 573 69.0005 574.343 69.0005 576C69.0005 577.657 70.3436 579 72.0005 579Z" stroke="black" stroke-width="5"/>
<path d="M101 576C101 577.457 99.6427 579 97.5005 579C95.3583 579 94.0005 577.457 94.0005 576C94.0005 574.543 95.3583 573 97.5005 573C99.6427 573 101 574.543 101 576Z" stroke="black" stroke-width="5"/>
<path d="M123 579C124.657 579 126 577.657 126 576C126 574.343 124.657 573 123 573C121.344 573 120 574.343 120 576C120 577.657 121.344 579 123 579Z" stroke="black" stroke-width="5"/>
<path d="M1042.5 194C1049.13 194 1054.5 188.627 1054.5 182C1054.5 175.373 1049.13 170 1042.5 170C1035.87 170 1030.5 175.373 1030.5 182C1030.5 188.627 1035.87 194 1042.5 194Z" stroke="black" stroke-width="5"/>
<path d="M1066.08 171.5C1074.87 171.5 1100 171.5 1111.82 171.5C1121.39 171.5 1126 173.618 1126 188.442C1126 202.845 1125.88 221.502 1126 229.032C1126.08 234.326 1123.45 240.185 1114.65 241.032C1105.86 241.879 1070.57 241.385 1054.02 241.032C1047.87 241.032 1037 237.548 1037 223.384V207.501" stroke="black" stroke-width="5" stroke-linecap="round"/>
<path d="M1060 196.5L1082 211.5" stroke="black" stroke-width="5" stroke-linecap="round"/>
<path d="M1082 211.5L1122 174.5" stroke="black" stroke-width="5" stroke-linecap="round"/>
<path d="M1092.14 202.5L1103.07 213.5L1114 224.5" stroke="black" stroke-width="5" stroke-linecap="round"/>
<path d="M1052 224.5L1068.13 202.5" stroke="black" stroke-width="5" stroke-linecap="round"/>
<path d="M1130.44 943.982C1127.12 947.31 1124.25 950.179 1122.28 952.155C1117.13 957.307 1111.73 954.302 1109.67 952.155L1076.85 920.528C1072 916.022 1067.9 911.574 1049.59 894.1C1047.71 892.222 1044.74 887.428 1047.86 883.268C1050.97 879.109 1068.48 857.273 1076.85 846.875C1079.38 843.199 1084.9 838.826 1091.93 845.366C1097.99 850.998 1118.76 870.494 1136.5 885.317" stroke="black" stroke-width="5" stroke-linecap="round"/>
<path d="M1076.5 848C1077.53 866.97 1084.49 897.507 1120.5 909" stroke="black" stroke-width="5" stroke-linecap="round"/>
<path d="M1167.81 910.468C1167.42 914.019 1167.17 917.743 1167.23 920.909L1167.81 910.468ZM1168.86 904.63C1168.49 906.821 1168.11 907.742 1167.81 910.468L1168.86 904.63ZM1183.5 931.89C1182.1 936.143 1172.97 945.228 1156.12 944.996C1139.26 944.764 1134.1 929.899 1133.56 922.978C1133.07 916.651 1135.52 904.455 1144.49 896.837C1153.52 889.162 1165 888.947 1175.18 896.837C1183.62 903.372 1183.61 913.368 1182.11 918.589C1181.21 921.693 1177.83 924.737 1171.57 928.449C1168.45 930.299 1167.35 926.465 1167.23 920.909L1183.5 931.89ZM1167.81 910.468C1166.16 906.273 1153.49 901.389 1148.7 910.468C1143.76 919.833 1147.54 927.722 1150.75 929.269C1154.85 931.244 1160.87 932.277 1167.23 920.909L1167.81 910.468Z" stroke="black" stroke-width="5" stroke-linecap="round"/>
<path d="M280.5 785.569C276.905 771.69 264.967 746.094 245.983 754.746C226.998 763.398 238.072 778.899 245.983 785.569C251.306 789.174 262.75 793.031 265.938 779.62C269.126 766.21 255.691 760.694 251.915 766.643C249.924 768.986 247.675 774.862 254.612 779.62" stroke="black" stroke-width="5" stroke-linecap="round"/>
<path d="M364.273 102.756C364.219 102.595 364.238 102.501 364.258 102.442C364.286 102.365 364.347 102.272 364.451 102.196C364.555 102.12 364.661 102.089 364.743 102.086C364.806 102.083 364.901 102.094 365.039 102.193L385.436 116.834C387.371 118.224 389.981 118.209 391.901 116.797L412.129 101.923C412.266 101.823 412.36 101.811 412.423 101.813C412.505 101.815 412.612 101.845 412.717 101.92C412.821 101.995 412.884 102.087 412.912 102.164C412.934 102.223 412.953 102.316 412.901 102.478L405.28 126.401C404.556 128.671 405.377 131.149 407.313 132.538L408.771 130.507L407.313 132.538L427.709 147.18C427.847 147.279 427.888 147.365 427.906 147.425C427.929 147.504 427.933 147.615 427.894 147.738C427.855 147.86 427.787 147.948 427.723 147.999C427.673 148.038 427.591 148.085 427.421 148.086L402.313 148.23C399.931 148.243 397.828 149.79 397.104 152.06L389.483 175.983C389.431 176.145 389.361 176.21 389.31 176.245C389.242 176.292 389.138 176.33 389.009 176.331C388.88 176.332 388.776 176.294 388.708 176.249C388.656 176.214 388.585 176.149 388.532 175.988L380.636 152.154C379.887 149.892 377.767 148.37 375.384 148.384L350.277 148.528C350.107 148.529 350.023 148.482 349.974 148.444C349.908 148.394 349.84 148.307 349.799 148.185C349.759 148.063 349.762 147.952 349.784 147.873C349.802 147.812 349.841 147.725 349.978 147.625L370.205 132.751C372.125 131.339 372.917 128.852 372.168 126.59L364.273 102.756Z" stroke="black" stroke-width="5"/>
<path d="M674 559.915V644.915" stroke="black" stroke-width="5" stroke-linecap="round"/>
<path d="M738 569.915V650.915" stroke="black" stroke-width="5" stroke-linecap="round"/>
<path d="M588.308 938C567.175 940.631 517.702 950.336 506.865 970.07C503.614 975.992 499.843 990.399 510.766 1000.66C521.691 1010.92 541.653 1008.23 550.268 1005.59L600.5 985.365" stroke="black" stroke-width="5" stroke-linecap="round"/>
<path d="M876.3 789.076C836.868 790.345 662.706 874.661 580.554 916.661C573.559 962.941 603.08 996.171 618.715 1007C700.602 983.227 868.667 935.046 885.84 932.51C903.013 929.975 920.025 917.718 926.385 911.907C970.906 859.922 938.046 815.756 916.05 800.171C900.392 789.076 886.875 788.735 876.3 789.076Z" fill="black"/>
<path d="M506.932 777.282C534.871 779.146 656.751 826.382 714.5 851.139L582.43 917.134C523.324 934.467 487.015 928.757 475.926 925.021C411.919 894.184 436.997 818.106 462.428 789.924C478.818 775.974 496.921 776.615 506.932 777.282Z" fill="black"/>
<path d="M817.886 947C835.348 955.391 844.79 966.386 849.577 975.402C859.836 998.881 841.415 1012.99 820.384 1006.36C808.762 1002.69 806.022 1000.23 799.867 995.129C796.743 992.538 782.155 978.983 765.5 962.973" stroke="black" stroke-width="5" stroke-linecap="round"/>
<path d="M482.573 546.323L495.98 789.964C496.272 795.266 500.655 799.415 505.965 799.415H880C885.523 799.415 890 794.938 890 789.415V540.551C890 534.975 885.44 530.477 879.865 530.552L492.423 535.775C486.738 535.851 482.26 540.646 482.573 546.323Z" fill="black"/>
<path d="M880.5 802.915H503.5C498.253 802.915 494 807.168 494 812.415C494 817.662 498.253 821.915 503.5 821.915H880.5C885.747 821.915 890 817.662 890 812.415C890 807.168 885.747 802.915 880.5 802.915Z" fill="black"/>
<path d="M739 424.915C773.833 424.415 850.5 450.915 881 534.415" stroke="black" stroke-width="5" stroke-linecap="round"/>
<path d="M662.5 424.415C583 439.915 545 473.915 515 539.415" stroke="black" stroke-width="5" stroke-linecap="round"/>
<path d="M928.5 503.5L948 471" stroke="black" stroke-width="5" stroke-linecap="round"/>
<path d="M948 512.5L974.5 490.5" stroke="black" stroke-width="5" stroke-linecap="round"/>
<path d="M952 527.5C957.167 529.5 968.9 531.4 974.5 523" stroke="black" stroke-width="5" stroke-linecap="round"/>
<path d="M440.5 497.415L410.5 466.415" stroke="black" stroke-width="5" stroke-linecap="round"/>
<path d="M471 492.415L453 445.915" stroke="black" stroke-width="5" stroke-linecap="round"/>
<path d="M433 514.915L410.5 506.415" stroke="black" stroke-width="5" stroke-linecap="round"/>
<path d="M901 590.5C919.5 619.5 940.5 654 901 718.915" stroke="black" stroke-width="5" stroke-linecap="round"/>
<path d="M739.5 427.415C744 414.415 739.9 405.667 735.9 404C711.9 426 675.5 417.833 662 404.5C657.2 408.9 660 421.915 662 425.915C688 454.715 725 438.581 739.5 427.415Z" fill="black"/>
<path d="M633 507.415L641.03 495.09C648.856 483.077 664.088 478.281 677.385 483.643L696.522 491.359C708.461 496.174 722.141 492.834 730.519 483.06L752.5 457.415" stroke="black" stroke-width="5" stroke-linecap="round"/>
<path d="M476.5 608.915C469 626.582 460.1 669.415 484.5 699.415" stroke="black" stroke-width="5" stroke-linecap="round"/>
<path d="M808.443 223.021C797.443 262.521 791.943 266.021 775.943 283.521C775.943 266.226 772.972 237.196 772.972 225.108C720.583 225.108 676.369 203.722 660.811 193.029C661.369 229.292 627.372 253.003 627.372 253.003C627.372 253.003 632.248 267.648 635.035 300.425C637.264 326.646 630.855 321.579 627.372 315.767C617.34 283.409 600.898 292.056 593.931 300.425C508.444 161.521 639.911 134.681 664.99 137.238C683.939 121.059 710.366 108.38 728.943 106.521C795.943 99.8137 826.279 158.973 808.443 223.021Z" fill="black"/>
<path d="M628.543 340.49C637.543 395.436 697.951 434.945 741.543 390.436C785.135 345.926 776.412 264.454 771.754 226.436" stroke="black" stroke-width="5" stroke-linecap="round"/>
<path d="M592.943 297.021C587.443 310.521 592.603 340.435 628.543 340.435" stroke="black" stroke-width="5" stroke-linecap="round"/>
<path d="M608.794 304.436C607.999 307.324 608.635 314.169 617.543 318.436" stroke="black" stroke-width="5" stroke-linecap="round"/>
<path d="M770.543 333.436C782.273 328.545 790.543 310.436 787.361 281.436" stroke="black" stroke-width="5" stroke-linecap="round"/>
<path d="M704.543 366.436C716.043 369.436 715.316 361.18 724.043 353.936" stroke="black" stroke-width="5" stroke-linecap="round"/>
<path d="M738.873 304.085C743.015 304.085 746.373 300.727 746.373 296.585C746.373 292.443 743.015 289.085 738.873 289.085C734.731 289.085 731.373 292.443 731.373 296.585C731.373 300.727 734.731 304.085 738.873 304.085Z" fill="black"/>
<path d="M672.873 305.085C677.015 305.085 680.373 301.727 680.373 297.585C680.373 293.443 677.015 290.085 672.873 290.085C668.731 290.085 665.373 293.443 665.373 297.585C665.373 301.727 668.731 305.085 672.873 305.085Z" fill="black"/>
<path d="M656.543 280.436C658.121 275.789 664.931 267.192 679.543 269.98" stroke="black" stroke-width="5" stroke-linecap="round"/>
<path d="M726.543 271.436C730.028 268.417 739.507 264.191 749.543 271.436" stroke="black" stroke-width="5" stroke-linecap="round"/>
<path d="M702.35 292.436C701.185 302.31 700.393 322.333 706.543 323.436" stroke="black" stroke-width="5" stroke-linecap="round"/>
<path d="M990.5 746C1124 783 1363.8 825.499 1255 699.499C1220.67 665.666 1170 626 1088.5 591" stroke="black" stroke-width="5" stroke-linecap="round"/>
<path d="M1135 487.488C1218 434.321 1351.7 324.488 1222.5 310.488C1093.3 296.488 975.333 344.988 932.5 370.988" stroke="black" stroke-width="5" stroke-linecap="round"/>
<path d="M813.5 409.793C868.5 291.293 957.5 45.6933 873.5 11.2933C768.5 -31.7067 632.5 92.2932 521.5 388.293" stroke="black" stroke-width="5" stroke-linecap="round"/>
<path d="M399.18 307.713C276.18 240.38 25.0797 136.813 4.6797 261.213C-15.7203 385.613 233.513 489.38 360.68 525.713" stroke="black" stroke-width="5" stroke-linecap="round"/>
<path d="M393.331 591C213.831 682.5 -11.0795 809.045 113.501 875C164.5 902 295 885.5 355 861" stroke="black" stroke-width="5" stroke-linecap="round"/>
<path d="M687 1220C823.69 1220 934.5 1206.57 934.5 1190C934.5 1173.43 823.69 1160 687 1160C550.31 1160 439.5 1173.43 439.5 1190C439.5 1206.57 550.31 1220 687 1220Z" fill="black"/>
</g>
<defs>
<clipPath id="clip0_2_4">
<rect width="1285" height="1220" fill="white" transform="translate(0.5)"/>
</clipPath>
</defs>
</svg>
